<svg version="1.1" xmlns="http://www.w3.org/2000/svg" xmlns:xlink="http://www.w3.org/1999/xlink" x="0" y="0" width="32.067" height="8.707" viewBox="-7.664 -.011 32.067 8.707" xml:space="preserve"><defs><path id="a" d="M22.871 3.24c-.221.11-.527.212-.92.307l-.542.118c-.283.079-.487.181-.613.306a.962.962 0 0 0-.166.518c0 .236.071.424.212.566.142.125.346.188.613.188.44 0 .786-.125 1.038-.377.251-.251.377-.596.377-1.036v-.59zm.377 2.898c-.33.173-.68.278-1.049.318-.37.039-.695.059-.979.059-.566 0-1.061-.153-1.485-.459-.424-.307-.637-.813-.637-1.521 0-.659.193-1.13.578-1.413s.876-.471 1.474-.565c.078 0 .172-.012.282-.036.11-.023.236-.043.377-.059.692-.094 1.038-.298 1.038-.613 0-.236-.122-.389-.366-.459s-.468-.106-.672-.106c-.22 0-.417.032-.589.094a.641.641 0 0 0-.377.354h-1.58c.063-.487.283-.888.66-1.202.425-.361 1.029-.542 1.815-.542.88 0 1.541.149 1.98.448.457.314.686.754.686 1.319V3.9c0 .628-.115 1.119-.342 1.473-.228.353-.499.609-.814.765zm-7.71.259V3.358c0-.612.09-1.127.271-1.543s.428-.75.743-1.001a2.923 2.923 0 0 1 1.049-.519A4.696 4.696 0 0 1 18.839.13h.235v1.672h-.542c-.457 0-.794.11-1.014.33-.22.22-.33.566-.33 1.037v3.228h-1.65zM13.769 3.24c-.22.11-.527.212-.919.307l-.542.118c-.283.079-.487.181-.613.306a.96.96 0 0 0-.165.518c0 .236.071.424.212.566.142.125.346.188.613.188.44 0 .786-.125 1.038-.377.251-.251.377-.596.377-1.036v-.59zm.377 2.898c-.33.173-.68.278-1.049.318-.37.039-.695.059-.979.059-.566 0-1.061-.153-1.485-.459-.425-.307-.637-.813-.637-1.521 0-.659.192-1.13.578-1.413s.876-.471 1.474-.565c.079 0 .173-.012.283-.036.11-.023.236-.043.377-.059.692-.094 1.038-.298 1.038-.613 0-.236-.122-.389-.365-.459a2.419 2.419 0 0 0-.672-.106c-.22 0-.417.032-.589.094a.641.641 0 0 0-.377.354h-1.58c.063-.487.283-.888.66-1.202.425-.361 1.029-.542 1.815-.542.88 0 1.541.149 1.98.448.456.314.684.754.684 1.319V3.9c0 .628-.114 1.119-.342 1.473-.228.353-.5.609-.814.765zM8.228 3.287c0-.612-.118-1.083-.354-1.414-.235-.329-.574-.494-1.014-.494-.424 0-.754.165-.99.495-.22.299-.33.77-.33 1.414 0 .597.118 1.045.354 1.343.236.329.573.494 1.014.494.409 0 .731-.165.967-.495s.353-.777.353-1.343zM5.54 7.906a.77.77 0 0 1-.236.565.776.776 0 0 1-.566.235h-.801V2.84c0-1.1.322-1.85.967-2.25a3.908 3.908 0 0 1 2.099-.601c.393 0 .79.075 1.191.224.4.149.718.364.954.647.471.613.707 1.398.707 2.356 0 .99-.236 1.791-.707 2.403-.472.598-1.077.896-1.816.896-.393 0-.739-.07-1.038-.212a1.771 1.771 0 0 1-.754-.73v2.333zM2.168 3.24c-.221.11-.527.212-.92.307l-.541.117c-.284.079-.488.181-.614.306a.96.96 0 0 0-.165.518c0 .236.071.424.212.566.142.126.346.188.613.188.44 0 .786-.125 1.038-.377.251-.251.377-.596.377-1.036V3.24zm.378 2.898c-.331.173-.68.278-1.049.318-.37.039-.696.059-.979.059-.566 0-1.061-.153-1.485-.459-.424-.307-.637-.813-.637-1.521 0-.659.192-1.13.578-1.413s.876-.471 1.474-.565c.078 0 .172-.012.283-.036.11-.023.236-.043.377-.059.691-.094 1.037-.298 1.037-.612 0-.236-.122-.389-.365-.459a2.43 2.43 0 0 0-.673-.107c-.22 0-.417.032-.589.094a.644.644 0 0 0-.377.354h-1.58c.063-.487.283-.888.66-1.202C-.355.169.25-.012 1.037-.012c.88 0 1.541.149 1.98.448.456.315.684.754.684 1.32V3.9c0 .628-.114 1.119-.342 1.473s-.499.609-.813.765zm-8.607 1.768c0 .22-.079.408-.235.565a.777.777 0 0 1-.566.235h-.802V2.84c0-1.1.322-1.85.967-2.25a3.905 3.905 0 0 1 2.098-.601c.393 0 .79.075 1.191.224.401.149.719.365.955.647.472.613.708 1.398.708 2.356 0 .99-.236 1.791-.708 2.403-.472.598-1.077.896-1.816.896-.393 0-.739-.07-1.038-.212a1.768 1.768 0 0 1-.755-.73v2.333zm2.688-4.619c0-.612-.118-1.083-.354-1.414-.235-.329-.573-.494-1.013-.494-.425 0-.755.165-.991.495-.22.299-.33.77-.33 1.414 0 .597.118 1.045.354 1.343.236.33.573.495 1.014.495.408 0 .73-.165.966-.495s.354-.778.354-1.344z"/></defs><linearGradient id="b" gradientUnits="userSpaceOnUse" x1="-7.664" y1="4.347" x2="24.404" y2="4.347"><stop offset="0" stop-color="#e14955"/><stop offset="1" stop-color="#93079c"/></linearGradient><use xlink:href="#a" overflow="visible" fill-rule="evenodd" clip-rule="evenodd" fill="url(#b)"/></svg>